# xmcd
#
# Track frame offsets:
#	150
#	17841
#	35393
#	57972
#	79523
#	116295
#	140104
#	156553
#	187729
#	262932
#	308243
#
# Disc length: 4456 seconds
#
# Revision: 1
# Processed by: cddbd v1.5.2PL0 Copyright (c) Steve Scherf et al.
# Submitted via: audiograbber 1.83.01
#
DISCID=8911660b
DTITLE=Grateful Dead - 70-11-07A Capitol Theatre, Port Chester NY
DYEAR=1900
DGENRE=
TTITLE0=NRPS Connections
TTITLE1=NRPS Louisiana Lady
TTITLE2=NRPS Honky Tonk Women
TTITLE3=Cumberland Blues
TTITLE4=Cold Rain and Snow
TTITLE5=It Hurts Me Too
TTITLE6=Beat It On Down The Line
TTITLE7=Truckin'
TTITLE8=Drums
TTITLE9=The Other One
TTITLE10=Casey Jones
EXTD=
EXTT0=
EXTT1=
EXTT2=
EXTT3=
EXTT4=
EXTT5=
EXTT6=
EXTT7=
EXTT8=
EXTT9=
EXTT10=
PLAYORDER=
